<svg xmlns="http://www.w3.org/2000/svg" width="17" height="40" fill="none"><g clip-path="url(#a)"><path fill="#A3BCCA" d="M16.024 29.851 12.594 5.43C12.116 2.04 9.063-.388 5.758.066h-.007C2.468.612.214 3.762.69 7.149l1.39-.17c-.019-.118-.037-.225-.044-.34-.276-2.596 1.557-4.928 4.08-5.212 2.526-.284 4.8 1.646 5.077 4.239l3.423 24.388c.011.063.011.125.025.188.352 2.874-1.625 5.504-4.42 5.862-2.795.361-5.354-1.671-5.702-4.545L2.134 14.612l-1.4.217L3.11 31.77c.517 3.67 3.825 6.201 7.388 5.678 3.57-.532 6.032-3.933 5.522-7.596h.004Z"/><path fill="#5027A5" d="m15.46 30.987-3.43-24.42C11.578 3.15 8.514.751 5.191 1.21h-.007C1.933 1.76-.31 4.884.146 8.248l1.389-.17c-.323-2.541 1.385-4.887 3.853-5.29 2.509-.401 4.87 1.366 5.257 3.944l3.413 24.454c.01.063.01.126.025.189.351 2.873-1.626 5.504-4.421 5.861-2.795.362-5.354-1.67-5.702-4.544L1.581 15.737l-1.4.218L2.576 32.86c.025.251.065.513.108.764.71 3.626 4.148 5.98 7.675 5.25 3.527-.731 5.817-4.265 5.106-7.891l-.003.003Z"/></g><defs><clipPath id="a"><path fill="#fff" d="M.089.01h16v39h-16z"/></clipPath></defs></svg>