<svg width="47" height="47" viewBox="0 0 47 47" fill="none" xmlns="http://www.w3.org/2000/svg">
<path d="M43.7197 46.6667H2.93827C1.31358 46.6667 0 45.3531 0 43.7284V2.93827C0 1.31358 1.31358 0 2.93827 0H43.7284C45.3531 0 46.6667 1.31358 46.6667 2.93827V43.7284C46.6667 45.3531 45.3531 46.6667 43.7284 46.6667" fill="white"/>
<path d="M38.0157 41.9139H8.28734C6.23055 41.9139 4.57129 40.2547 4.57129 38.1979V8.46947C4.57129 6.41268 6.23055 4.75342 8.28734 4.75342H38.0157C40.0725 4.75342 41.7318 6.41268 41.7318 8.46947V38.1979C41.7318 40.2547 40.0725 41.9139 38.0157 41.9139Z" fill="#CED9EE"/>
<path d="M41.7317 38.197V32.0612L36.6848 27.0143C35.8897 26.2192 34.6107 26.2192 33.8156 27.0143L27.0576 33.7723V41.9217H38.0156C40.0724 41.9217 41.7317 40.2624 41.7317 38.2056" fill="white"/>
<path d="M16.3935 19.963C15.5984 19.1679 14.3194 19.1679 13.5244 19.963L4.57129 28.9161V38.1976C4.57129 40.2457 6.23919 41.9136 8.28734 41.9136H38.0157C38.1194 41.9136 38.2145 41.8877 38.3182 41.879L16.3935 19.9544V19.963Z" fill="#667799"/>
<path d="M37.6802 12.9543C37.6802 15.2444 35.8222 17.1024 33.5321 17.1024C31.242 17.1024 29.3926 15.2444 29.3926 12.9543C29.3926 10.6642 31.2506 8.80615 33.5321 8.80615C35.8136 8.80615 37.6802 10.6642 37.6802 12.9543Z" fill="#667799"/>
</svg>
