<?xml version="1.0" standalone="no"?>
<!DOCTYPE svg PUBLIC "-//W3C//DTD SVG 20010904//EN"
 "http://www.w3.org/TR/2001/REC-SVG-20010904/DTD/svg10.dtd">
<svg version="1.0" xmlns="http://www.w3.org/2000/svg"
 width="700.000000pt" height="700.000000pt" viewBox="0 0 700.000000 700.000000"
 preserveAspectRatio="xMidYMid meet">
<metadata>
Created by potrace 1.14, written by Peter Selinger 2001-2017
</metadata>
<g transform="translate(0.000000,700.000000) scale(0.100000,-0.100000)"
fill="#000000" stroke="none">
<path d="M3417 6344 c-1 -1 -40 -4 -87 -8 -47 -3 -96 -8 -110 -11 -14 -3 -38
-7 -55 -10 -137 -23 -421 -118 -495 -165 -8 -6 -25 -14 -37 -20 -100 -43 -302
-190 -427 -310 -247 -237 -424 -540 -510 -871 -25 -98 -28 -112 -46 -245 -80
-599 171 -1243 640 -1639 92 -78 214 -165 230 -165 5 0 10 -4 10 -8 0 -4 58
-37 130 -73 71 -35 129 -66 129 -69 0 -3 -25 -23 -55 -45 -74 -53 -203 -189
-264 -280 -85 -126 -165 -305 -186 -417 -28 -149 -31 -186 -29 -313 4 -185 34
-323 101 -473 13 -29 24 -54 24 -57 0 -2 17 -32 37 -67 79 -135 200 -273 313
-357 109 -80 187 -98 300 -70 180 46 286 217 245 395 -18 77 -55 133 -139 208
-83 74 -144 158 -175 241 -80 214 -29 449 133 611 124 123 235 169 411 168 95
0 120 -4 184 -27 233 -86 380 -289 386 -532 3 -106 -12 -171 -60 -273 -29 -61
-53 -92 -140 -177 -129 -126 -158 -179 -158 -289 1 -134 68 -242 186 -301 90
-44 163 -49 262 -16 132 45 347 275 454 486 45 90 97 257 114 365 15 93 16
317 3 385 -50 246 -127 417 -267 590 -60 75 -171 183 -216 212 -16 10 -31 22
-35 27 -4 6 45 36 108 68 423 214 733 550 906 983 32 78 80 237 94 308 18 93
20 111 30 222 69 812 -398 1572 -1161 1886 -96 40 -270 90 -359 103 -21 4 -48
8 -60 11 -48 10 -349 27 -359 19z m313 -717 c102 -25 185 -54 258 -88 343
-164 592 -496 650 -869 9 -59 9 -303 0 -357 -44 -256 -155 -469 -340 -654 -97
-96 -151 -123 -248 -123 -91 0 -151 26 -206 86 -52 58 -76 119 -76 193 0 86
33 153 118 235 87 83 138 163 169 263 107 339 -106 694 -457 760 -310 58 -612
-140 -683 -448 -15 -64 -21 -181 -11 -230 29 -146 90 -251 211 -366 97 -92
125 -217 73 -329 -51 -110 -135 -163 -258 -164 -97 -1 -150 28 -259 136 -170
170 -282 385 -325 627 -19 102 -14 322 8 426 61 279 212 519 436 690 148 113
361 203 525 221 28 3 52 8 54 10 11 11 302 -5 361 -19z"/>
</g>
</svg>
